<svg width="15" height="15" viewBox="0 0 15 15" fill="none" xmlns="http://www.w3.org/2000/svg">
<path d="M13.9938 3.91891C13.3232 2.7698 12.4134 1.86005 11.2644 1.18946C10.1153 0.518824 8.86071 0.183594 7.49988 0.183594C6.13922 0.183594 4.88425 0.518927 3.73532 1.18946C2.58621 1.86002 1.67653 2.7698 1.00586 3.91891C0.335299 5.06799 0 6.32278 0 7.68327C0 9.31752 0.4768 10.7871 1.43064 12.0923C2.38437 13.3977 3.61646 14.3009 5.12679 14.8022C5.3026 14.8348 5.43275 14.8119 5.51736 14.7339C5.60202 14.6559 5.64429 14.5581 5.64429 14.4411C5.64429 14.4215 5.64262 14.2458 5.63937 13.9137C5.63602 13.5817 5.63444 13.292 5.63444 13.0448L5.40983 13.0836C5.26662 13.1099 5.08595 13.121 4.86784 13.1178C4.64982 13.1148 4.4235 13.0919 4.18917 13.0495C3.95473 13.0073 3.73669 12.9097 3.53485 12.7567C3.33312 12.6037 3.18991 12.4034 3.10525 12.1562L3.0076 11.9315C2.94251 11.7819 2.84004 11.6157 2.70004 11.4335C2.56004 11.2512 2.41848 11.1276 2.27526 11.0625L2.20689 11.0135C2.16133 10.981 2.11906 10.9418 2.07996 10.8963C2.0409 10.8507 2.01166 10.8052 1.99213 10.7596C1.97256 10.7139 1.98877 10.6764 2.04093 10.6471C2.0931 10.6177 2.18736 10.6034 2.32414 10.6034L2.51938 10.6326C2.64959 10.6587 2.81065 10.7366 3.00278 10.8669C3.1948 10.9971 3.35265 11.1663 3.47636 11.3746C3.62617 11.6416 3.80667 11.845 4.01835 11.985C4.22987 12.125 4.44313 12.1949 4.65793 12.1949C4.87273 12.1949 5.05825 12.1786 5.21456 12.1462C5.3707 12.1136 5.51719 12.0647 5.65397 11.9996C5.71257 11.5633 5.87209 11.228 6.13242 10.9937C5.76137 10.9547 5.42779 10.896 5.13148 10.8179C4.83534 10.7397 4.52932 10.6128 4.21362 10.4369C3.89775 10.2612 3.63572 10.043 3.42745 9.78269C3.21915 9.52227 3.0482 9.18037 2.91484 8.7573C2.78141 8.33406 2.71468 7.84584 2.71468 7.29249C2.71468 6.50461 2.97189 5.83415 3.48621 5.28073C3.24528 4.68839 3.26803 4.02436 3.55452 3.28871C3.74332 3.23005 4.02331 3.27407 4.39435 3.4205C4.76546 3.56699 5.03718 3.69248 5.20977 3.79653C5.38236 3.90054 5.52065 3.98869 5.62483 4.06017C6.23041 3.89097 6.85535 3.80635 7.49981 3.80635C8.14428 3.80635 8.76935 3.89097 9.37496 4.06017L9.74604 3.82591C9.99979 3.6696 10.2995 3.52636 10.6443 3.39614C10.9893 3.266 11.2532 3.23015 11.4356 3.28881C11.7284 4.0245 11.7545 4.6885 11.5135 5.28084C12.0278 5.83425 12.2851 6.50488 12.2851 7.29259C12.2851 7.84594 12.2181 8.3357 12.0849 8.76219C11.9515 9.18875 11.7791 9.5303 11.5676 9.78758C11.3558 10.0448 11.0921 10.2613 10.7764 10.437C10.4607 10.6128 10.1545 10.7397 9.8584 10.8179C9.56212 10.8961 9.22854 10.9548 8.85749 10.9939C9.1959 11.2867 9.36514 11.749 9.36514 12.3805V14.4408C9.36514 14.5578 9.40585 14.6556 9.48732 14.7336C9.56869 14.8116 9.69719 14.8345 9.873 14.8019C11.3835 14.3007 12.6156 13.3974 13.5693 12.0921C14.5229 10.7868 14.9999 9.31725 14.9999 7.68299C14.9996 6.32268 14.6641 5.06799 13.9938 3.91891Z" fill="#EE6C4D"/>
</svg>
