<svg width="660" height="252" viewBox="0 0 660 252" fill="none" xmlns="http://www.w3.org/2000/svg">
<path d="M100.764 29.2321C88.0604 29.2321 75.4816 31.735 63.7452 36.598C52.0093 41.4611 41.3453 48.589 32.3628 57.5749C23.3802 66.5607 16.2549 77.2284 11.3936 88.9686C6.53233 100.709 4.03024 113.293 4.03027 126C4.03045 151.665 14.222 176.278 32.3631 194.426C50.5038 212.573 75.1082 222.768 100.764 222.768C126.418 222.768 151.023 212.573 169.163 194.425C187.304 176.278 197.496 151.665 197.496 126C197.496 100.336 187.305 75.7224 169.164 57.5749C151.023 39.4275 126.418 29.2323 100.764 29.2321ZM100.764 40.1605C111.907 40.1606 122.942 42.381 133.237 46.6949C143.533 51.0088 152.887 57.332 160.767 65.3027C168.647 73.274 174.897 82.7366 179.162 93.1513C183.426 103.566 185.621 114.728 185.621 126C185.621 148.766 176.68 170.6 160.767 186.698C144.853 202.795 123.269 211.839 100.764 211.839C89.6197 211.839 78.5851 209.619 68.2896 205.305C57.9941 200.992 48.6397 194.669 40.7598 186.698C32.88 178.727 26.6294 169.264 22.3649 158.85C18.1004 148.435 15.9054 137.273 15.9054 126C15.9053 114.728 18.1002 103.565 22.3646 93.1508C26.6291 82.7366 32.8797 73.2735 40.7595 65.3022C48.6393 57.3315 57.9941 51.0083 68.2896 46.6947C78.5851 42.3808 89.6197 40.1604 100.764 40.1605Z" fill="#E53E3E"/>
<path d="M137.33 149.429L142.243 148.429C142.243 148.429 142.166 147.664 141.998 146.742L147.911 145.533L146.883 141.501L134.639 144.074C134.443 144.072 134.247 144.072 134.053 144.068L90.6011 73.0125L88.5515 73.1264L87.6406 74.8999L88.5541 76.419L48.4179 80.9011L49.3287 82.8808L46.8493 78.7046H44.6759L43.6094 80.1567L70.1728 129.088C66.5015 139.564 60.9036 155.662 59.2934 160.32L50.8414 162.056L51.9679 165.711L86.2708 158.439L103.476 189.988H105.729L107.389 187.743L90.7431 157.638L106.01 154.576C106.239 155.206 106.378 155.7 106.378 155.7L132.998 150.294L150.035 178.625L152.16 178.51L153.591 176.02L137.33 149.429ZM88.5415 153.764L88.4347 153.569L96.063 151.946L96.0604 151.854C96.4942 151.886 96.9406 151.899 97.3925 151.903L88.5415 153.764ZM89.0342 149.845L86.6728 150.368L84.4646 146.358C85.8067 147.732 87.3152 148.921 89.0342 149.845ZM90.3618 79.4253L128.881 143.463C102.775 137.825 94.7853 95.2399 89.0367 83.48L92.4989 83.1061L90.6913 80.0997L50.5552 84.5818L52.1417 87.4626L55.2689 87.1245C56.9224 90.9735 59.1221 98.0986 61.9173 105.414L50.0044 83.7804L90.3618 79.4253ZM82.2997 151.339L65.6148 155.038C67.7061 148.947 70.5688 140.631 72.8954 133.958L82.2997 151.339ZM64.1824 159.211C64.2394 159.043 64.3003 158.869 64.3603 158.692L84.0157 154.509L84.2741 154.987L64.1824 159.211Z" fill="#E53E3E"/>
<path d="M106.245 185.909L147.911 175.098L145.325 170.8L103.712 181.31L106.245 185.909Z" fill="#E53E3E"/>
<path d="M226.818 87.6959H246.769C253.621 87.6959 258.962 88.6031 262.791 90.4175C266.687 92.1649 269.441 94.8865 271.053 98.5823C272.733 102.278 273.573 107.184 273.573 113.299V143.035C273.573 149.285 272.766 154.325 271.154 158.155C269.542 161.918 266.821 164.741 262.992 166.622C259.163 168.437 253.89 169.344 247.173 169.344H226.818V87.6959ZM246.971 157.752C249.859 157.752 251.975 157.315 253.319 156.442C254.73 155.501 255.603 154.157 255.939 152.41C256.342 150.662 256.544 148.142 256.544 144.85V111.082C256.544 107.99 256.308 105.672 255.838 104.126C255.435 102.514 254.562 101.338 253.218 100.598C251.875 99.7919 249.759 99.3887 246.87 99.3887H243.344V157.752H246.971ZM300.4 170.352C297.713 170.352 295.362 169.68 293.346 168.336C291.331 166.992 289.786 165.245 288.711 163.094C287.704 160.877 287.2 158.592 287.2 156.24C287.2 151.738 288.308 148.041 290.525 145.152C292.742 142.262 295.395 140.011 298.485 138.398C301.643 136.786 305.808 135.038 310.98 133.157V127.714C310.98 125.63 310.678 124.051 310.073 122.976C309.536 121.901 308.528 121.363 307.05 121.363C305.572 121.363 304.531 121.833 303.926 122.774C303.322 123.715 302.953 125.059 302.818 126.806L302.516 130.838L288.207 130.234C288.476 123.312 290.256 118.238 293.548 115.013C296.84 111.72 301.777 110.074 308.36 110.074C314.07 110.074 318.369 111.653 321.258 114.811C324.147 117.97 325.591 122.304 325.591 127.814V154.93C325.591 159.499 325.927 164.304 326.598 169.344H312.995C312.727 167.395 312.29 164.606 311.685 160.978C310.879 163.665 309.502 165.917 307.554 167.731C305.673 169.478 303.289 170.352 300.4 170.352ZM305.841 159.566C306.849 159.566 307.789 159.23 308.662 158.558C309.603 157.886 310.375 157.113 310.98 156.24V140.213C307.823 142.027 305.405 143.909 303.725 145.858C302.046 147.806 301.206 150.192 301.206 153.014C301.206 155.097 301.609 156.71 302.415 157.853C303.221 158.995 304.363 159.566 305.841 159.566ZM341.695 175.09C345.121 175.09 347.573 174.72 349.051 173.981C350.596 173.309 351.368 172.066 351.368 170.251C351.368 169.378 351.133 168 350.663 166.118C350.26 164.237 349.789 162.288 349.252 160.272L335.952 111.082H350.462L357.817 146.866L363.863 111.082H378.373L364.871 171.158C363.662 176.534 361.411 180.297 358.12 182.448C354.828 184.666 350.428 185.774 344.92 185.774H341.695V175.09ZM407.851 170.352C401.469 170.352 396.632 168.571 393.341 165.01C390.049 161.448 388.403 156.442 388.403 149.99V130.334C388.403 123.816 390.049 118.809 393.341 115.315C396.632 111.821 401.469 110.074 407.851 110.074C414.098 110.074 418.8 111.552 421.958 114.509C425.182 117.466 426.794 121.901 426.794 127.814V133.358H412.184V127.411C412.184 124.857 411.848 123.11 411.176 122.17C410.504 121.162 409.429 120.658 407.952 120.658C406.339 120.658 405.197 121.262 404.526 122.472C403.921 123.682 403.619 125.798 403.619 128.822V151.805C403.619 154.829 403.955 156.912 404.626 158.054C405.365 159.197 406.474 159.768 407.952 159.768C409.497 159.768 410.571 159.23 411.176 158.155C411.848 157.08 412.184 155.366 412.184 153.014V145.958H426.794V152.41C426.794 158.256 425.182 162.725 421.958 165.816C418.733 168.84 414.031 170.352 407.851 170.352ZM452.293 170.352C449.606 170.352 447.255 169.68 445.24 168.336C443.224 166.992 441.679 165.245 440.604 163.094C439.597 160.877 439.093 158.592 439.093 156.24C439.093 151.738 440.201 148.041 442.418 145.152C444.635 142.262 447.288 140.011 450.378 138.398C453.535 136.786 457.7 135.038 462.873 133.157V127.714C462.873 125.63 462.571 124.051 461.966 122.976C461.429 121.901 460.421 121.363 458.943 121.363C457.465 121.363 456.424 121.833 455.82 122.774C455.215 123.715 454.845 125.059 454.711 126.806L454.409 130.838L440.101 130.234C440.369 123.312 442.149 118.238 445.441 115.013C448.732 111.72 453.67 110.074 460.253 110.074C465.963 110.074 470.262 111.653 473.151 114.811C476.039 117.97 477.484 122.304 477.484 127.814V154.93C477.484 159.499 477.819 164.304 478.491 169.344H464.888C464.619 167.395 464.183 164.606 463.578 160.978C462.772 163.665 461.395 165.917 459.447 167.731C457.566 169.478 455.181 170.352 452.293 170.352ZM457.734 159.566C458.742 159.566 459.682 159.23 460.556 158.558C461.496 157.886 462.269 157.113 462.873 156.24V140.213C459.716 142.027 457.297 143.909 455.618 145.858C453.938 147.806 453.099 150.192 453.099 153.014C453.099 155.097 453.502 156.71 454.308 157.853C455.114 158.995 456.256 159.566 457.734 159.566ZM509.716 170.05C503.872 170.05 499.808 168.739 497.525 166.118C495.308 163.498 494.199 159.499 494.199 154.123V121.061H488.456V111.082H494.199V93.5423H509.616V111.082H518.08V121.061H509.616V152.611C509.616 156.038 511.329 157.752 514.755 157.752C516.568 157.752 518.014 157.617 519.087 157.349V169.243C515.526 169.781 512.402 170.05 509.716 170.05ZM532.061 90.1151H547.377V101.506H532.061V90.1151ZM532.162 111.082H547.377V169.344H532.162V111.082ZM581.415 170.352C575.102 170.352 570.23 168.672 566.804 165.312C563.449 161.952 561.766 157.08 561.766 150.696V129.73C561.766 123.345 563.449 118.474 566.804 115.114C570.23 111.753 575.102 110.074 581.415 110.074C587.733 110.074 592.569 111.753 595.925 115.114C599.35 118.474 601.064 123.345 601.064 129.73V150.696C601.064 157.08 599.35 161.952 595.925 165.312C592.569 168.672 587.733 170.352 581.415 170.352ZM581.515 160.07C583.264 160.07 584.438 159.398 585.042 158.054C585.717 156.643 586.05 154.56 586.05 151.805V128.722C586.05 125.966 585.717 123.883 585.042 122.472C584.438 121.061 583.264 120.355 581.515 120.355C579.702 120.355 578.462 121.094 577.787 122.573C577.117 123.984 576.78 126.034 576.78 128.722V151.805C576.78 154.493 577.117 156.542 577.787 157.954C578.462 159.365 579.702 160.07 581.515 160.07ZM615.442 111.082H630.557V116.928C635.263 112.358 639.963 110.074 644.664 110.074C648.024 110.074 650.579 111.317 652.322 113.803C654.136 116.289 655.042 119.482 655.042 123.379V169.344H639.827V125.798C639.827 124.186 639.56 123.01 639.021 122.27C638.487 121.464 637.58 121.061 636.3 121.061C634.759 121.061 632.844 121.867 630.557 123.48V169.344H615.442V111.082Z" fill="#E53E3E"/>
</svg>
